<svg width="42" height="50" viewBox="0 0 42 50" fill="none" xmlns="http://www.w3.org/2000/svg" xmlns:xlink="http://www.w3.org/1999/xlink">
<path d="M33.6,4.167C33.6,3.062 34.042,2.002 34.83,1.22C35.618,0.439 36.686,0 37.8,0C38.914,0 39.982,0.439 40.77,1.22C41.558,2.002 42,3.062 42,4.167L42,45.833C42,46.938 41.558,47.998 40.77,48.78C39.982,49.561 38.914,50 37.8,50C36.686,50 35.618,49.561 34.83,48.78C34.042,47.998 33.6,46.938 33.6,45.833L33.6,4.167ZM0,4.167C0,3.062 0.442,2.002 1.23,1.22C2.018,0.439 3.086,0 4.2,0C5.314,0 6.382,0.439 7.17,1.22C7.957,2.002 8.4,3.062 8.4,4.167L8.4,45.833C8.4,46.938 7.957,47.998 7.17,48.78C6.382,49.561 5.314,50 4.2,50C3.086,50 2.018,49.561 1.23,48.78C0.442,47.998 0,46.938 0,45.833L0,4.167Z" fill="#FFFFFF"/>
</svg>
