<svg width="46" height="54" viewBox="0 0 46 54" fill="none" xmlns="http://www.w3.org/2000/svg" xmlns:xlink="http://www.w3.org/1999/xlink">
<path d="M38.396,29.065L3.64,52.234C3.384,52.404 3.087,52.502 2.78,52.517C2.473,52.531 2.167,52.462 1.896,52.317C1.625,52.172 1.399,51.956 1.241,51.692C1.082,51.429 0.999,51.127 0.999,50.82L0.999,2.774C0.999,2.467 1.082,2.165 1.241,1.901C1.399,1.638 1.625,1.422 1.896,1.277C2.167,1.131 2.473,1.063 2.78,1.077C3.087,1.092 3.384,1.19 3.64,1.36L38.396,24.529L38.396,2.999C38.396,2.097 38.754,1.232 39.392,0.595C40.029,-0.043 40.894,-0.401 41.796,-0.401C42.697,-0.401 43.562,-0.043 44.2,0.595C44.837,1.232 45.195,2.097 45.195,2.999L45.195,50.595C45.195,51.497 44.837,52.362 44.2,52.999C43.562,53.637 42.697,53.995 41.796,53.995C40.894,53.995 40.029,53.637 39.392,52.999C38.754,52.362 38.396,51.497 38.396,50.595L38.396,29.065ZM7.798,12.304L7.798,41.29L29.536,26.797L7.798,12.304Z" fill="#363437"/>
</svg>
