<svg width="34" height="34" viewBox="0 0 34 34" fill="none" xmlns="http://www.w3.org/2000/svg" xmlns:xlink="http://www.w3.org/1999/xlink">
<path d="M18,6.44L11.206,12L4,12L4,20L11.206,20L18,25.56L18,6.44ZM9.778,24L2,24C1.47,24 0.961,23.789 0.586,23.414C0.211,23.039 0,22.531 0,22L0,10C0,9.47 0.211,8.961 0.586,8.586C0.961,8.211 1.47,8 2,8L9.778,8L20.366,-0.664C20.513,-0.784 20.69,-0.86 20.878,-0.883C21.066,-0.906 21.257,-0.876 21.428,-0.794C21.599,-0.713 21.744,-0.585 21.845,-0.425C21.946,-0.265 22,-0.079 22,0.11L22,31.89C22,32.08 21.946,32.265 21.845,32.425C21.744,32.585 21.599,32.713 21.428,32.794C21.257,32.876 21.066,32.906 20.878,32.883C20.69,32.86 20.513,32.784 20.366,32.664L9.78,24L9.778,24ZM29.726,25.182L26.882,22.338C27.853,21.591 28.639,20.632 29.18,19.533C29.72,18.433 30.001,17.225 30,16C30,13.14 28.5,10.63 26.24,9.216L29.118,6.338C30.633,7.452 31.864,8.908 32.712,10.586C33.56,12.265 34.002,14.119 34,16C34,19.684 32.34,22.98 29.726,25.182Z" fill="#4E4D4D"/>
</svg>
