<svg width="46" height="56" viewBox="0 0 46 56" fill="none" xmlns="http://www.w3.org/2000/svg" xmlns:xlink="http://www.w3.org/1999/xlink">
<path d="M38.123,29.812L3.368,52.981C3.112,53.151 2.814,53.249 2.507,53.264C2.2,53.278 1.895,53.209 1.624,53.064C1.353,52.919 1.126,52.703 0.968,52.439C0.81,52.176 0.726,51.874 0.726,51.567L0.726,3.521C0.726,3.214 0.81,2.912 0.968,2.649C1.126,2.385 1.353,2.169 1.624,2.024C1.895,1.879 2.2,1.81 2.507,1.824C2.814,1.839 3.112,1.937 3.368,2.107L38.123,25.276L38.123,3.746C38.123,2.844 38.482,1.979 39.119,1.342C39.757,0.704 40.621,0.346 41.523,0.346C42.425,0.346 43.29,0.704 43.927,1.342C44.565,1.979 44.923,2.844 44.923,3.746L44.923,51.342C44.923,52.244 44.565,53.109 43.927,53.746C43.29,54.384 42.425,54.742 41.523,54.742C40.621,54.742 39.757,54.384 39.119,53.746C38.482,53.109 38.123,52.244 38.123,51.342L38.123,29.812ZM7.526,13.051L7.526,42.037L29.264,27.544L7.526,13.051Z" transform="rotate(-359.075 22.825 27.544)" fill="#363437"/>
</svg>
