<svg width="214" height="62" viewBox="0 0 214 62" fill="none" xmlns="http://www.w3.org/2000/svg" xmlns:xlink="http://www.w3.org/1999/xlink">
<path d="M162.106,1.545L162.106,58.525C162.106,59.013 161.515,59.482 160.464,59.827C159.412,60.172 157.987,60.366 156.5,60.366C155.013,60.366 153.588,60.172 152.536,59.827C151.485,59.482 150.894,59.013 150.894,58.525L150.894,1.545C150.894,1.056 151.485,0.588 152.536,0.243C153.588,-0.103 155.013,-0.297 156.5,-0.297C157.987,-0.297 159.412,-0.103 160.464,0.243C161.515,0.588 162.106,1.056 162.106,1.545L162.106,1.545ZM106.139,6.524C104.653,6.524 103.227,6.718 102.176,7.063C101.124,7.409 100.534,7.877 100.534,8.365L100.534,51.704C100.534,52.193 101.124,52.661 102.176,53.006C103.227,53.352 104.653,53.546 106.139,53.546C107.626,53.546 109.052,53.352 110.103,53.006C111.154,52.661 111.745,52.193 111.745,51.704L111.745,8.365C111.745,7.877 111.154,7.409 110.103,7.063C109.052,6.718 107.626,6.524 106.139,6.524ZM206.85,17.44C205.362,17.44 203.936,17.634 202.886,17.979C201.834,18.324 201.244,18.793 201.244,19.281L201.244,40.789C201.244,41.277 201.834,41.745 202.886,42.091C203.936,42.436 205.362,42.63 206.85,42.63C208.336,42.63 209.762,42.436 210.814,42.091C211.864,41.745 212.454,41.277 212.454,40.789L212.454,19.281C212.454,18.793 211.864,18.324 210.814,17.979C209.762,17.634 208.336,17.44 206.85,17.44ZM55.779,2.237C54.292,2.237 52.866,2.431 51.815,2.777C50.764,3.122 50.173,3.59 50.173,4.079L50.173,56.006C50.173,56.494 50.764,56.963 51.815,57.308C52.866,57.653 54.292,57.847 55.779,57.847C57.266,57.847 58.691,57.653 59.743,57.308C60.794,56.963 61.384,56.494 61.384,56.006L61.384,4.079C61.384,3.59 60.794,3.122 59.743,2.777C58.691,2.431 57.266,2.237 55.779,2.237ZM5.43,22.747C3.943,22.747 2.517,22.941 1.466,23.286C0.415,23.631 -0.176,24.1 -0.176,24.588L-0.176,35.482C-0.176,35.97 0.415,36.438 1.466,36.784C2.517,37.129 3.943,37.323 5.43,37.323C6.916,37.323 8.342,37.129 9.393,36.784C10.445,36.438 11.035,35.97 11.035,35.482L11.035,24.588C11.035,24.1 10.445,23.631 9.393,23.286C8.342,22.941 6.916,22.747 5.43,22.747L5.43,22.747Z" fill="#AAAAAA"/>
</svg>
