<svg width="40" height="38" viewBox="0 0 40 38" fill="none" xmlns="http://www.w3.org/2000/svg" xmlns:xlink="http://www.w3.org/1999/xlink">
<path d="M20.002,3.058C24.7,-1.16 31.96,-1.02 36.486,3.514C41.01,8.05 41.166,15.274 36.958,19.986L19.998,36.97L3.042,19.986C-1.166,15.274 -1.008,8.038 3.514,3.514C8.044,-1.014 15.29,-1.166 20.002,3.058L20.002,3.058ZM33.654,6.34C30.654,3.336 25.814,3.214 22.674,6.034L20.004,8.43L17.332,6.036C14.182,3.212 9.352,3.336 6.344,6.344C3.364,9.324 3.214,14.094 5.96,17.246L20,31.308L34.04,17.248C36.788,14.094 36.638,9.33 33.654,6.34L33.654,6.34Z" fill="#4E4D4D"/>
</svg>
